<svg width="74" height="70" viewBox="0 0 74 70" fill="none" xmlns="http://www.w3.org/2000/svg">
<g clip-path="url(#clip0_137937_579)">
<path d="M69.9 46.7H59.3H14.6H4.1C1.8 46.7 0 48.6 0 51V54.5C0 56.9 1.9 58.7999 4.1 58.7999H5V59.9C5 65.4 9.3 70 14.6 70H59.2C64.5 70 68.8 65.5 68.8 59.9V58.7999H69.7C72 58.7999 73.8 56.9 73.8 54.5V51C74 48.7 72.1 46.7 69.9 46.7ZM66 59.9C66 63.8 63 66.9 59.3 66.9H14.6C10.9 66.9 7.9 63.7 7.9 59.9V58.7999H66V59.9ZM71.1 54.5C71.1 55.2 70.5 55.7999 69.9 55.7999H68.9H66H8H5H4C3.3 55.7999 2.8 55.2 2.8 54.5V51C2.8 50.3 3.4 49.7 4 49.7H7.7H14.6H59.2H66.1H69.8C70.5 49.7 71 50.3 71 51C71.1 51 71.1 54.5 71.1 54.5Z" fill="black"/>
<path d="M15.6001 38.4001L21.0001 42.5001L26.3001 38.4001L31.6001 42.5001L36.9001 38.4001L42.3001 42.5001L47.6001 38.4001L52.9001 42.5001L58.3001 38.4001L63.6001 42.5001L69.8001 37.8001L68.1001 35.3001L63.6001 38.7001L58.3001 34.6001L52.9001 38.7001L47.6001 34.6001L42.3001 38.7001L36.9001 34.6001L31.6001 38.7001L26.3001 34.6001L21.0001 38.7001L15.6001 34.6001L10.3001 38.7001L5.8001 35.3001L4.1001 37.8001L10.3001 42.5001L15.6001 38.4001Z" fill="black"/>
<path d="M8 31.5H65.9H68.8C68.8 30.9 68.9 30.3 68.9 29.6C68.9 29.2 68.9 28.8 68.9 28.4C68.2 12.7 54.2 0 37 0C19.7 0 5.7 12.7 5 28.5C5 28.9 5 29.3 5 29.7C5 30.3 5 30.9 5.1 31.5H8ZM37 3C52.6 3 65.4 14.3 66 28.5H8C8.6 14.4 21.4 3 37 3Z" fill="black"/>
<path d="M37.0001 17.3C38.0494 17.3 38.9001 16.4046 38.9001 15.3C38.9001 14.1955 38.0494 13.3 37.0001 13.3C35.9508 13.3 35.1001 14.1955 35.1001 15.3C35.1001 16.4046 35.9508 17.3 37.0001 17.3Z" fill="black"/>
<path d="M29.1999 12.2C30.2492 12.2 31.0998 11.3045 31.0998 10.2C31.0998 9.09538 30.2492 8.19995 29.1999 8.19995C28.1505 8.19995 27.2998 9.09538 27.2998 10.2C27.2998 11.3045 28.1505 12.2 29.1999 12.2Z" fill="black"/>
<path d="M44.6999 12.2C45.7492 12.2 46.5998 11.3045 46.5998 10.2C46.5998 9.09538 45.7492 8.19995 44.6999 8.19995C43.6505 8.19995 42.7998 9.09538 42.7998 10.2C42.7998 11.3045 43.6505 12.2 44.6999 12.2Z" fill="black"/>
</g>
<defs>
<clipPath id="clip0_137937_579">
<rect width="74" height="70" fill="white"/>
</clipPath>
</defs>
</svg>
