<svg width="90" height="17" viewBox="0 0 90 17" fill="none" xmlns="http://www.w3.org/2000/svg">
<mask id="mask0_6_2" style="mask-type:luminance" maskUnits="userSpaceOnUse" x="72" y="0" width="18" height="17">
<path d="M72 0H90V17H72V0Z" fill="white"/>
</mask>
<g mask="url(#mask0_6_2)">
<path d="M81 0L83.1 6.5H90L84.4 10.5L86.6 17L81 13L75.4 17L77.6 10.5L72 6.5H78.9L81 0Z" fill="#83B3D3"/>
</g>
<mask id="mask1_6_2" style="mask-type:luminance" maskUnits="userSpaceOnUse" x="48" y="0" width="18" height="17">
<path d="M48 0H66V17H48V0Z" fill="white"/>
</mask>
<g mask="url(#mask1_6_2)">
<path d="M57 0L59.1 6.5H66L60.4 10.5L62.6 17L57 13L51.4 17L53.6 10.5L48 6.5H54.9L57 0Z" fill="#83B3D3"/>
</g>
<mask id="mask2_6_2" style="mask-type:luminance" maskUnits="userSpaceOnUse" x="24" y="0" width="18" height="17">
<path d="M24 0H42V17H24V0Z" fill="white"/>
</mask>
<g mask="url(#mask2_6_2)">
<path d="M33 0L35.1 6.5H42L36.4 10.5L38.6 17L33 13L27.4 17L29.6 10.5L24 6.5H30.9L33 0Z" fill="#83B3D3"/>
</g>
<path d="M9 0L11.1 6.5H18L12.4 10.5L14.6 17L9 13L3.4 17L5.6 10.5L0 6.5H6.9L9 0Z" fill="#83B3D3"/>
</svg>
